<mxfile host="app.diagrams.net" modified="2022-06-19T21:49:09.634Z" agent="5.0 (Windows)" etag="6Av0CCTBW5-jI5FuK0Xz" version="20.0.1" type="github">
  <diagram name="Page-1" id="10a91c8b-09ff-31b1-d368-03940ed4cc9e">
    <mxGraphModel dx="1422" dy="741" grid="1" gridSize="10" guides="1" tooltips="1" connect="1" arrows="1" fold="1" page="1" pageScale="1" pageWidth="1100" pageHeight="850" background="none" math="0" shadow="0">
      <root>
        <mxCell id="0" />
        <mxCell id="1" parent="0" />
        <mxCell id="_ipf3uEqs4oB8sV_UgcI-21" value="" style="rounded=1;whiteSpace=wrap;html=1;fontSize=24;fillColor=none;strokeWidth=2;glass=0;" parent="1" vertex="1">
          <mxGeometry x="80" y="40" width="840" height="360" as="geometry" />
        </mxCell>
        <mxCell id="_ipf3uEqs4oB8sV_UgcI-1" value="&lt;b&gt;&lt;font style=&quot;font-size: 24px;&quot;&gt;1&lt;/font&gt;&lt;/b&gt;" style="ellipse;whiteSpace=wrap;html=1;aspect=fixed;" parent="1" vertex="1">
          <mxGeometry x="480" y="80" width="40" height="40" as="geometry" />
        </mxCell>
        <mxCell id="_ipf3uEqs4oB8sV_UgcI-2" value="&lt;b&gt;&lt;font style=&quot;font-size: 24px;&quot;&gt;7&lt;/font&gt;&lt;/b&gt;" style="ellipse;whiteSpace=wrap;html=1;aspect=fixed;" parent="1" vertex="1">
          <mxGeometry x="240" y="160" width="40" height="40" as="geometry" />
        </mxCell>
        <mxCell id="_ipf3uEqs4oB8sV_UgcI-3" value="&lt;font style=&quot;font-size: 24px;&quot;&gt;&lt;b&gt;2&lt;/b&gt;&lt;/font&gt;" style="ellipse;whiteSpace=wrap;html=1;aspect=fixed;" parent="1" vertex="1">
          <mxGeometry x="120" y="240" width="40" height="40" as="geometry" />
        </mxCell>
        <mxCell id="_ipf3uEqs4oB8sV_UgcI-4" value="&lt;font style=&quot;font-size: 24px;&quot;&gt;&lt;b&gt;6&lt;/b&gt;&lt;/font&gt;" style="ellipse;whiteSpace=wrap;html=1;aspect=fixed;" parent="1" vertex="1">
          <mxGeometry x="360" y="240" width="40" height="40" as="geometry" />
        </mxCell>
        <mxCell id="_ipf3uEqs4oB8sV_UgcI-5" value="&lt;b&gt;&lt;font style=&quot;font-size: 24px;&quot;&gt;5&lt;/font&gt;&lt;/b&gt;" style="ellipse;whiteSpace=wrap;html=1;aspect=fixed;" parent="1" vertex="1">
          <mxGeometry x="280" y="320" width="40" height="40" as="geometry" />
        </mxCell>
        <mxCell id="_ipf3uEqs4oB8sV_UgcI-6" value="&lt;font style=&quot;font-size: 24px;&quot;&gt;&lt;b&gt;11&lt;/b&gt;&lt;/font&gt;" style="ellipse;whiteSpace=wrap;html=1;aspect=fixed;" parent="1" vertex="1">
          <mxGeometry x="440" y="320" width="40" height="40" as="geometry" />
        </mxCell>
        <mxCell id="_ipf3uEqs4oB8sV_UgcI-7" value="&lt;b&gt;&lt;font style=&quot;font-size: 24px;&quot;&gt;13&lt;/font&gt;&lt;/b&gt;" style="ellipse;whiteSpace=wrap;html=1;aspect=fixed;" parent="1" vertex="1">
          <mxGeometry x="720" y="160" width="40" height="40" as="geometry" />
        </mxCell>
        <mxCell id="_ipf3uEqs4oB8sV_UgcI-8" value="&lt;b&gt;&lt;font style=&quot;font-size: 24px;&quot;&gt;9&lt;/font&gt;&lt;/b&gt;" style="ellipse;whiteSpace=wrap;html=1;aspect=fixed;" parent="1" vertex="1">
          <mxGeometry x="840" y="240" width="40" height="40" as="geometry" />
        </mxCell>
        <mxCell id="_ipf3uEqs4oB8sV_UgcI-10" value="&lt;font style=&quot;font-size: 24px;&quot;&gt;&lt;b&gt;4&lt;/b&gt;&lt;/font&gt;" style="ellipse;whiteSpace=wrap;html=1;aspect=fixed;" parent="1" vertex="1">
          <mxGeometry x="760" y="320" width="40" height="40" as="geometry" />
        </mxCell>
        <mxCell id="_ipf3uEqs4oB8sV_UgcI-12" value="" style="endArrow=classic;html=1;rounded=0;fontSize=24;" parent="1" edge="1">
          <mxGeometry width="50" height="50" relative="1" as="geometry">
            <mxPoint x="480" y="100" as="sourcePoint" />
            <mxPoint x="280" y="170" as="targetPoint" />
          </mxGeometry>
        </mxCell>
        <mxCell id="_ipf3uEqs4oB8sV_UgcI-13" value="" style="endArrow=classic;html=1;rounded=0;fontSize=24;exitX=1;exitY=0.5;exitDx=0;exitDy=0;entryX=0;entryY=0;entryDx=0;entryDy=0;" parent="1" source="_ipf3uEqs4oB8sV_UgcI-1" target="_ipf3uEqs4oB8sV_UgcI-7" edge="1">
          <mxGeometry width="50" height="50" relative="1" as="geometry">
            <mxPoint x="665.86" y="120" as="sourcePoint" />
            <mxPoint x="460.0021356237311" y="185.85786437626894" as="targetPoint" />
          </mxGeometry>
        </mxCell>
        <mxCell id="_ipf3uEqs4oB8sV_UgcI-14" value="" style="endArrow=classic;html=1;rounded=0;fontSize=24;entryX=1;entryY=0;entryDx=0;entryDy=0;" parent="1" target="_ipf3uEqs4oB8sV_UgcI-3" edge="1">
          <mxGeometry width="50" height="50" relative="1" as="geometry">
            <mxPoint x="240" y="190" as="sourcePoint" />
            <mxPoint x="284.14213562373106" y="175.85786437626894" as="targetPoint" />
          </mxGeometry>
        </mxCell>
        <mxCell id="_ipf3uEqs4oB8sV_UgcI-15" value="" style="endArrow=classic;html=1;rounded=0;fontSize=24;entryX=1;entryY=0;entryDx=0;entryDy=0;exitX=0;exitY=1;exitDx=0;exitDy=0;" parent="1" source="_ipf3uEqs4oB8sV_UgcI-4" target="_ipf3uEqs4oB8sV_UgcI-5" edge="1">
          <mxGeometry width="50" height="50" relative="1" as="geometry">
            <mxPoint x="500" y="120" as="sourcePoint" />
            <mxPoint x="294.14213562373106" y="185.85786437626894" as="targetPoint" />
          </mxGeometry>
        </mxCell>
        <mxCell id="_ipf3uEqs4oB8sV_UgcI-16" value="" style="endArrow=classic;html=1;rounded=0;fontSize=24;entryX=1;entryY=0;entryDx=0;entryDy=0;exitX=0;exitY=1;exitDx=0;exitDy=0;" parent="1" edge="1">
          <mxGeometry width="50" height="50" relative="1" as="geometry">
            <mxPoint x="851.717864376269" y="280.0021356237311" as="sourcePoint" />
            <mxPoint x="800.0021356237311" y="331.71786437626895" as="targetPoint" />
          </mxGeometry>
        </mxCell>
        <mxCell id="_ipf3uEqs4oB8sV_UgcI-17" value="" style="endArrow=classic;html=1;rounded=0;fontSize=24;exitX=1;exitY=1;exitDx=0;exitDy=0;entryX=0;entryY=0;entryDx=0;entryDy=0;" parent="1" source="_ipf3uEqs4oB8sV_UgcI-4" target="_ipf3uEqs4oB8sV_UgcI-6" edge="1">
          <mxGeometry width="50" height="50" relative="1" as="geometry">
            <mxPoint x="520" y="450" as="sourcePoint" />
            <mxPoint x="570" y="400" as="targetPoint" />
          </mxGeometry>
        </mxCell>
        <mxCell id="_ipf3uEqs4oB8sV_UgcI-19" value="" style="endArrow=classic;html=1;rounded=0;fontSize=24;exitX=1;exitY=0.5;exitDx=0;exitDy=0;" parent="1" source="_ipf3uEqs4oB8sV_UgcI-2" target="_ipf3uEqs4oB8sV_UgcI-4" edge="1">
          <mxGeometry width="50" height="50" relative="1" as="geometry">
            <mxPoint x="290" y="190" as="sourcePoint" />
            <mxPoint x="375.86" y="160" as="targetPoint" />
          </mxGeometry>
        </mxCell>
        <mxCell id="_ipf3uEqs4oB8sV_UgcI-20" value="" style="endArrow=classic;html=1;rounded=0;fontSize=24;entryX=-0.025;entryY=0.25;entryDx=0;entryDy=0;entryPerimeter=0;exitX=1.025;exitY=0.675;exitDx=0;exitDy=0;exitPerimeter=0;" parent="1" source="_ipf3uEqs4oB8sV_UgcI-7" target="_ipf3uEqs4oB8sV_UgcI-8" edge="1">
          <mxGeometry width="50" height="50" relative="1" as="geometry">
            <mxPoint x="520" y="450" as="sourcePoint" />
            <mxPoint x="570" y="400" as="targetPoint" />
          </mxGeometry>
        </mxCell>
        <mxCell id="TwCzcCK1r7HmWiPWqcZy-1" value="&lt;font style=&quot;font-size: 24px;&quot;&gt;&lt;b&gt;10&lt;/b&gt;&lt;/font&gt;" style="ellipse;whiteSpace=wrap;html=1;aspect=fixed;" parent="1" vertex="1">
          <mxGeometry x="240" y="240" width="40" height="40" as="geometry" />
        </mxCell>
        <mxCell id="TwCzcCK1r7HmWiPWqcZy-2" value="" style="endArrow=classic;html=1;rounded=0;fontSize=24;exitX=0.5;exitY=1;exitDx=0;exitDy=0;entryX=0.5;entryY=0;entryDx=0;entryDy=0;" parent="1" source="_ipf3uEqs4oB8sV_UgcI-2" target="TwCzcCK1r7HmWiPWqcZy-1" edge="1">
          <mxGeometry width="50" height="50" relative="1" as="geometry">
            <mxPoint x="200" y="280" as="sourcePoint" />
            <mxPoint x="250" y="230" as="targetPoint" />
          </mxGeometry>
        </mxCell>
      </root>
    </mxGraphModel>
  </diagram>
</mxfile>
